<?xml version="1.0" standalone="no"?><!DOCTYPE svg PUBLIC "-//W3C//DTD SVG 1.1//EN"
  "http://www.w3.org/Graphics/SVG/1.1/DTD/svg11.dtd">
<svg t="1582017936220" class="icon" viewBox="0 0 1024 1024" version="1.1" xmlns="http://www.w3.org/2000/svg" p-id="1257"
     xmlns:xlink="http://www.w3.org/1999/xlink" width="200" height="200">
  <defs>
    <style type="text/css"></style>
  </defs>
  <path
    d="M887.4 514.6l-88.7 354.9c-2.5 9.9-11.3 16.8-21.5 16.8H380.6V481.1l13.7-38.1 92.6-258.4 1.2-3.5 0.8-3.6c6.3-26.6 30.1-45.4 57.4-45.3h0.1c17.4 0 33.2 7.2 44.6 20.3 11.4 13.1 16.3 29.8 13.8 47l-30.3 211.6-10.8 75.9h302.1c9.4 0 15 5.3 17.5 8.5 4.3 5.4 5.8 12.5 4.1 19.1zM314.1 886.3H158.8c-12.2 0-22.2-9.9-22.2-22.2V509.2c0-12.2 10-22.2 22.2-22.2h155.3v399.3z m551.8-465.8H640.4l30.2-211.6c10.8-75.6-47.9-143.3-124.3-143.3h-0.1c-58.1 0-108.7 39.9-122.1 96.5l-92.6 258.4H158.8c-23.5 0-46.1 9.3-62.7 26-16.6 16.6-26 39.2-26 62.7v354.9c0 23.5 9.3 46.1 26 62.7 16.6 16.6 39.2 26 62.7 26h618.3c40.7 0 76.2-27.7 86.1-67.2l88.7-354.9c14-55.9-28.3-110.2-86-110.2z m0 0"
    p-id="1258" fill="#9ea7b4"></path>
</svg>
